<svg xmlns="http://www.w3.org/2000/svg" viewBox="0 0 900 500"><defs><linearGradient id="g" x1="0" x2="1"><stop stop-color="#f7f9fc"/><stop offset=".55" stop-color="#dfe5ec"/><stop offset="1" stop-color="#aeb8c5"/></linearGradient></defs><g fill="none" stroke-linecap="round" stroke-linejoin="round"><path d="M120 330h660l-32-86c-11-29-38-48-69-48H318c-34 0-63 20-75 52z" fill="url(#g)" stroke="#66717f" stroke-width="8"/><path d="M287 205h365l45 75H245z" fill="#9fc4df" stroke="#66717f" stroke-width="7"/><path d="M370 207v71M544 207v71" stroke="#66717f" stroke-width="6"/><path d="M115 330h675v54H115z" fill="#eef2f6" stroke="#66717f" stroke-width="8"/><circle cx="245" cy="384" r="58" fill="#222b36"/><circle cx="245" cy="384" r="29" fill="#dce3ea"/><circle cx="655" cy="384" r="58" fill="#222b36"/><circle cx="655" cy="384" r="29" fill="#dce3ea"/><path d="M150 325h95M655 325h95" stroke="#f5c400" stroke-width="10"/><path d="M145 355h65M690 355h65" stroke="#fff" stroke-width="10"/></g></svg>